<!-- Generator: Adobe Illustrator 21.0.0, SVG Export Plug-In  -->
<svg version="1.1"
	 xmlns="http://www.w3.org/2000/svg" xmlns:xlink="http://www.w3.org/1999/xlink" xmlns:a="http://ns.adobe.com/AdobeSVGViewerExtensions/3.0/"
	 x="0px" y="0px" width="18.6px" height="15.9px" viewBox="0 0 18.6 15.9" style="enable-background:new 0 0 18.6 15.9;"
	 xml:space="preserve">
<style type="text/css">
	.st0{fill:#FFFFFF;}
</style>
<defs>
</defs>
<g>
	<path class="st0" d="M8.6,14c0,0.4-0.3,0.7-0.7,0.7c-0.2,0-0.4-0.1-0.5-0.2l-3.7-3.7H0.7c-0.4,0-0.7-0.3-0.7-0.7V5.8
		c0-0.4,0.3-0.7,0.7-0.7h2.9l3.7-3.7c0.1-0.1,0.3-0.2,0.5-0.2c0.4,0,0.7,0.3,0.7,0.7V14z M11.1,10.6c-0.1,0-0.2,0.1-0.3,0.1
		c-0.4,0-0.7-0.3-0.7-0.7c0-0.8,1.3-0.6,1.3-2s-1.3-1.1-1.3-2c0-0.4,0.3-0.7,0.7-0.7c0.1,0,0.2,0,0.3,0.1c1,0.4,1.7,1.5,1.7,2.6
		S12.2,10.1,11.1,10.6z M12.2,13.2c-0.1,0-0.2,0.1-0.3,0.1c-0.4,0-0.7-0.3-0.7-0.7c0-0.3,0.2-0.5,0.4-0.7c0.3-0.2,0.6-0.3,0.8-0.5
		c1.1-0.8,1.8-2.1,1.8-3.4s-0.6-2.6-1.8-3.4C12.3,4.3,12,4.1,11.7,4c-0.3-0.1-0.4-0.3-0.4-0.7c0-0.4,0.3-0.7,0.7-0.7
		c0.1,0,0.2,0,0.3,0.1c2.1,0.9,3.5,3,3.5,5.3S14.3,12.3,12.2,13.2z M13.4,15.8c-0.1,0-0.2,0.1-0.3,0.1c-0.4,0-0.7-0.3-0.7-0.7
		c0-0.3,0.2-0.5,0.4-0.7c0.2-0.1,0.3-0.1,0.5-0.2c0.3-0.2,0.6-0.4,0.9-0.6c1.8-1.3,2.9-3.5,2.9-5.8s-1.1-4.4-2.9-5.8
		c-0.3-0.2-0.6-0.4-0.9-0.6c-0.2-0.1-0.3-0.1-0.5-0.2c-0.3-0.2-0.4-0.3-0.4-0.7c0-0.4,0.3-0.7,0.7-0.7c0.1,0,0.2,0,0.3,0.1
		c3.1,1.3,5.2,4.5,5.2,7.9S16.5,14.5,13.4,15.8z"/>
</g>
</svg>
