<!-- Generator: Adobe Illustrator 21.0.0, SVG Export Plug-In  -->
<svg version="1.1"
	 xmlns="http://www.w3.org/2000/svg" xmlns:xlink="http://www.w3.org/1999/xlink" xmlns:a="http://ns.adobe.com/AdobeSVGViewerExtensions/3.0/"
	 x="0px" y="0px" width="18.6px" height="17.1px" viewBox="0 0 18.6 17.1" style="enable-background:new 0 0 18.6 17.1;"
	 xml:space="preserve">
<style type="text/css">
	.st0{fill:#FFFFFF;}
</style>
<defs>
</defs>
<g>
	<path class="st0" d="M18.6,16.1c0,0.6-0.5,1.1-1.1,1.1H1.1c-0.6,0-1.1-0.5-1.1-1.1v-3.6c0-0.6,0.5-1.1,1.1-1.1h5.2l1.5,1.5
		c0.4,0.4,0.9,0.6,1.5,0.6s1.1-0.2,1.5-0.6l1.5-1.5h5.2c0.6,0,1.1,0.5,1.1,1.1V16.1z M14.8,6.9l-5,5c-0.1,0.1-0.3,0.2-0.5,0.2
		s-0.4-0.1-0.5-0.2l-5-5C3.6,6.7,3.5,6.4,3.6,6.1C3.7,5.9,4,5.7,4.3,5.7h2.9v-5C7.1,0.3,7.5,0,7.9,0h2.9c0.4,0,0.7,0.3,0.7,0.7v5
		h2.9c0.3,0,0.5,0.2,0.7,0.4C15,6.4,15,6.7,14.8,6.9z M13.6,14.3c-0.4,0-0.7,0.3-0.7,0.7s0.3,0.7,0.7,0.7s0.7-0.3,0.7-0.7
		S14,14.3,13.6,14.3z M16.4,14.3c-0.4,0-0.7,0.3-0.7,0.7s0.3,0.7,0.7,0.7s0.7-0.3,0.7-0.7S16.8,14.3,16.4,14.3z"/>
</g>
</svg>
